<svg width="112" height="163" viewBox="0 0 112 163" fill="none" xmlns="http://www.w3.org/2000/svg">
<path d="M21.2636 142.585V161.849C21.2636 162.322 20.9949 162.59 20.5208 162.59H17.2493C16.7751 162.59 16.5065 162.322 16.5065 161.849V149.868L12.7371 158.791C12.587 159.177 12.2946 159.351 11.8758 159.351H9.86076C9.44194 159.351 9.14956 159.169 8.99942 158.791L5.22219 149.868V161.849C5.22219 162.322 4.95352 162.59 4.47939 162.59H1.2079C0.733766 162.59 0.465097 162.322 0.465097 161.849V142.585C0.465097 142.112 0.733766 141.844 1.2079 141.844H4.47939H5.19058C5.6094 141.844 5.90178 142.026 6.05192 142.404L10.8643 153.809L15.6767 142.404C15.8269 142.018 16.1193 141.844 16.5381 141.844H18.9403H20.5129C21.0028 141.844 21.2636 142.112 21.2636 142.585ZM24.6852 145.257V142.593C24.6852 142.12 24.9539 141.852 25.428 141.852H28.3992C28.8733 141.852 29.142 142.12 29.142 142.593V145.257C29.142 145.73 28.8733 145.998 28.3992 145.998H25.428C24.9539 145.99 24.6852 145.73 24.6852 145.257ZM24.6852 161.849V148.513C24.6852 148.04 24.9539 147.772 25.428 147.772H28.3992C28.8733 147.772 29.142 148.04 29.142 148.513V161.849C29.142 162.322 28.8733 162.59 28.3992 162.59H25.428C24.9539 162.59 24.6852 162.322 24.6852 161.849ZM43.9664 162.59H40.8767C40.4895 162.59 40.1971 162.409 39.9838 162.086L37.9055 158.791L35.8272 162.086C35.6218 162.409 35.3215 162.59 34.9343 162.59H31.8445C31.2519 162.59 31.0148 162.204 31.3388 161.699L35.5428 155.039L31.5206 148.662C31.1966 148.158 31.4336 147.772 32.0263 147.772H35.116C35.5032 147.772 35.8035 147.953 36.009 148.276L37.9134 151.295L39.8178 148.276C40.0233 147.953 40.3235 147.772 40.7108 147.772H43.8005C44.3932 147.772 44.6302 148.158 44.3062 148.662L40.284 155.039L44.488 161.699C44.8041 162.204 44.567 162.59 43.9664 162.59ZM46.827 161.849V158.586C46.827 158.113 47.0957 157.845 47.5698 157.845H50.8413C51.3154 157.845 51.5841 158.113 51.5841 158.586V161.849C51.5841 162.322 51.3154 162.59 50.8413 162.59H47.5698C47.0878 162.59 46.827 162.322 46.827 161.849ZM64.9467 142.585V145.667C64.9467 146.14 64.678 146.408 64.2039 146.408H60.1975V161.849C60.1975 162.322 59.9288 162.59 59.4547 162.59H56.1832C55.709 162.59 55.4404 162.322 55.4404 161.849V146.408H51.4261C50.9519 146.408 50.6833 146.14 50.6833 145.667V142.585C50.6833 142.112 50.9519 141.844 51.4261 141.844H60.1975H64.2118C64.678 141.844 64.9467 142.112 64.9467 142.585ZM78.6806 148.513V161.849C78.6806 162.322 78.4119 162.59 77.9378 162.59H74.9666C74.4925 162.59 74.2238 162.322 74.2238 161.849V161.234C73.5284 162.267 72.2641 163 70.3596 163C67.5939 163 65.6025 160.864 65.6025 157.159V148.505C65.6025 148.032 65.8712 147.764 66.3453 147.764H69.3165C69.7907 147.764 70.0593 148.032 70.0593 148.505V156.773C70.0593 158.255 70.9207 158.909 72.0507 158.909C73.3862 158.909 74.2238 158.168 74.2238 156.418V148.505C74.2238 148.032 74.4925 147.764 74.9666 147.764H77.9378C78.4119 147.772 78.6806 148.04 78.6806 148.513ZM90.2652 148.245V151.744C90.2652 152.217 90.0597 152.454 89.6725 152.454C88.0051 152.391 86.401 153.226 86.401 155.599V161.849C86.401 162.322 86.1323 162.59 85.6582 162.59H82.687C82.2129 162.59 81.9442 162.322 81.9442 161.849V148.513C81.9442 148.04 82.2129 147.772 82.687 147.772H85.6582C86.1323 147.772 86.401 148.04 86.401 148.513V150.113C86.8435 148.623 88.013 147.756 89.4908 147.535C89.9965 147.449 90.2652 147.772 90.2652 148.245ZM104.228 153.258V161.849C104.228 162.322 103.96 162.59 103.485 162.59H100.633C100.159 162.59 99.89 162.322 99.89 161.849V161.424C99.0919 162.354 97.9223 163 96.0574 163C93.4418 163 91.1581 161.455 91.1581 158.373C91.1581 155.291 93.4418 153.746 96.0574 153.746C97.9223 153.746 99.0919 154.274 99.89 154.873V153.534C99.89 152.083 99.2973 151.429 98.0488 151.429C97.1242 151.429 96.5632 151.784 96.3261 152.288C96.1444 152.706 96.0021 152.942 95.5517 152.942H92.6437C92.1696 152.942 91.8693 152.674 91.9009 152.17C92.2881 148.97 95.0222 147.338 98.0488 147.338C101.32 147.354 104.228 149.254 104.228 153.258ZM99.89 158.381C99.89 157.459 99.084 156.899 97.63 156.899C96.2629 156.899 95.607 157.522 95.607 158.381C95.607 159.24 96.2629 159.863 97.63 159.863C99.0919 159.863 99.89 159.24 99.89 158.381ZM48.2889 109.646C44.97 108.739 41.8645 107.383 39.0355 105.492C37.6131 104.562 36.246 103.505 34.958 102.307C34.2784 101.756 33.6936 101.062 33.0378 100.455C32.4451 99.7693 31.7892 99.1466 31.2124 98.4136C28.8022 95.6075 26.5975 92.4074 24.2269 89.0181C24.5983 93.3454 25.9258 97.5229 27.9883 101.298C29.0077 103.198 30.2641 104.948 31.6865 106.532C32.3819 107.344 33.1642 108.053 33.9465 108.763C34.7604 109.425 35.5744 110.095 36.4515 110.647C39.9126 112.956 43.9032 114.178 47.8069 114.272C49.7666 114.32 51.7026 114.107 53.5755 113.618C54.5158 113.374 55.4325 113.067 56.3254 112.672C57.2184 112.278 58.0955 111.837 58.9015 111.246C55.1164 111.057 51.6157 110.568 48.2889 109.646ZM41.3903 34.3001C43.1762 34.9622 45.0332 35.8214 46.7638 36.9249C52.3743 40.4955 66.5113 35.1593 66.5113 35.1593C66.5113 35.1593 69.3956 33.9612 67.4516 31.7621C67.4516 31.7621 64.4093 29.5235 60.0157 28.357C59.0438 27.8052 55.8276 25.7007 56.0883 22.0828C56.1042 21.8542 56.1121 21.6729 56.1121 21.531C61.1773 -0.570564 77.0449 1.49456 77.0449 1.49456C77.0449 1.49456 86.883 0.446237 94.7931 8.2811C103.596 17.0145 96.6501 44.6179 102.553 50.4349C107.199 55.0144 109.949 51.4359 110.921 49.7018C111.182 49.2289 111.348 48.7008 111.427 48.1491C112.233 42.4345 116.153 5.56176 83.7222 0.493529C62.2915 -2.85639 55.8671 11.5207 54.1128 23.2651C52.9117 27.6397 49.6086 28.286 49.6086 28.286L49.6165 28.2939C44.2904 29.4447 41.3113 31.6281 41.3113 31.6281C40.2129 32.0773 40.2761 33.8824 41.3903 34.3001ZM92.865 73.5848C92.6121 70.29 92.0036 66.9638 90.9685 63.803C89.9412 60.6423 88.5188 57.6471 86.7803 54.9987C85.0339 52.3503 82.9715 50.0802 80.7431 48.2121C80.1899 47.7392 79.6289 47.2899 79.052 46.88C78.491 46.4386 77.8983 46.0603 77.3214 45.6583C76.1282 44.9331 74.9508 44.208 73.7339 43.6168C71.2921 42.4424 68.795 41.4571 66.211 40.8975C64.923 40.5112 63.4927 40.464 62.173 40.5743C60.8217 40.6531 59.5179 40.9448 58.1982 41.2837C58.0323 41.331 57.8742 41.3704 57.6846 41.4335C48.85 44.1213 44.9542 41.0788 44.9463 41.0788L44.7329 40.9211C42.1647 39.1082 39.4543 37.855 36.6412 36.917C35.9142 36.6884 35.2583 36.4835 34.4048 36.3101L32.1606 35.979C30.6987 35.7031 29.1894 35.7662 27.6722 35.711C26.9057 35.7425 26.1392 35.8371 25.3648 35.916C24.5904 35.9711 23.816 36.1367 23.0336 36.3101C21.4769 36.6332 19.9123 37.1929 18.3793 37.8392C15.3053 39.1949 12.4369 41.3862 10.003 44.003C7.54543 46.612 5.6173 49.7413 4.10009 52.9572C3.72078 53.7612 3.39679 54.5888 3.0649 55.4164C2.77252 56.244 2.46434 57.0795 2.20357 57.9151C1.69783 59.5782 1.19999 61.2965 0.891808 63.0463C0.228027 66.5381 -0.0722549 70.0694 0.0146688 73.5533C0.0541796 75.2952 0.156909 77.0214 0.362365 78.724C0.465093 79.5752 0.583629 80.4344 0.717966 81.2541L1.16048 83.6582C1.74524 86.8583 2.61448 90.027 3.61805 93.1325C4.68484 96.2302 5.92548 99.2649 7.4506 102.134C8.98361 104.995 10.7932 107.683 12.8241 110.095C16.9332 114.911 21.9589 118.466 27.1665 120.791C32.3977 123.14 37.7553 124.401 43.1683 124.945C43.5081 124.976 43.8558 125 44.2035 125.024L44.7329 125.047C44.8752 125.055 45.2229 125.063 45.3572 125.047C46.0684 125.008 46.7322 124.969 47.4118 124.898C48.7552 124.748 50.0748 124.567 51.3945 124.338C54.0338 123.873 56.6415 123.282 59.2413 122.509C64.4172 120.972 69.6089 118.891 74.532 115.62C76.9737 113.973 79.2891 111.987 81.4305 109.717C82.5289 108.605 83.4772 107.336 84.465 106.075C85.3421 104.743 86.2983 103.435 87.0411 101.984C90.2573 96.3248 92.0115 89.7511 92.7227 83.3823C92.8413 82.5941 92.8729 81.7744 92.9203 80.9625L93.0467 78.5269C92.9914 76.8795 93.0388 75.2558 92.865 73.5848ZM82.8055 69.691C82.6791 70.9916 82.6475 72.2606 82.4657 73.5611C82.1971 76.1307 81.7861 78.7161 81.312 81.3093C80.3638 86.5194 79.2575 91.43 77.4874 96.0805C76.6339 98.4215 75.6304 100.699 74.4134 102.883C73.2123 105.082 71.7978 107.179 70.1621 109.11C66.8906 112.964 62.6787 116.07 58.0244 117.922C55.7011 118.868 53.2831 119.522 50.8334 119.892C49.6086 120.082 48.3759 120.216 47.151 120.247C46.5425 120.263 45.9262 120.287 45.3493 120.247C45.1676 120.239 45.1913 120.231 45.0095 120.208L44.5828 120.145L43.6978 119.979C38.9249 119.002 34.3337 116.637 30.4459 113.571C28.494 112.026 26.7239 110.268 25.1119 108.408C23.5157 106.524 22.1012 104.514 20.8368 102.418C19.5962 100.297 18.5294 98.0825 17.5654 95.8125C16.6408 93.5109 15.8743 91.1226 15.2579 88.6555C14.689 86.1647 14.2227 83.6424 13.962 81.0413L13.7486 79.0944C13.6933 78.4717 13.6617 77.8648 13.6301 77.25C13.5906 76.0283 13.5748 74.8144 13.6143 73.6163C13.717 71.2201 13.9778 68.8713 14.4677 66.6327C14.9339 64.4178 15.6135 62.1478 16.4591 60.1694C18.1422 56.1416 20.4575 53.0675 23.6658 50.9236C24.4876 50.427 25.3016 49.8358 26.2419 49.4496C27.127 48.9136 28.1463 48.6456 29.1262 48.2121C30.1693 47.9362 31.2045 47.5264 32.3187 47.3293C32.8481 47.2111 33.4803 47.0928 33.9307 46.9589C34.3574 46.8643 34.9817 46.8012 35.5269 46.7618C37.8028 46.5884 40.1576 46.6357 42.307 47.1717L42.7021 47.282L42.8997 47.3372L43.0024 47.3608L43.1841 47.4239C43.6741 47.5737 44.2035 47.7786 44.6381 47.8022C45.5548 47.9284 46.3687 47.8811 47.1431 47.7865C48.1704 47.6682 49.1107 47.416 50.0195 47.1323L50.0116 47.1401C50.0116 47.1401 50.0353 47.1323 50.0511 47.1244C50.4857 46.9904 50.9124 46.8485 51.3312 46.6987C51.4498 46.6593 51.5604 46.6042 51.6789 46.5647C57.005 44.9016 73.6706 41.0078 80.5692 54.8568C81.0275 55.9288 81.4147 57.0165 81.7229 58.1279C82.4341 60.6502 82.7423 63.2513 82.8055 65.8366C82.9004 67.1135 82.8371 68.4141 82.8055 69.691Z" fill="url(#paint0_radial)"/>
<defs>
<radialGradient id="paint0_radial" cx="0" cy="0" r="1" gradientUnits="userSpaceOnUse" gradientTransform="translate(55.9967 81.5008) scale(70.0465 69.8693)">
<stop stop-color="#DF1740"/>
<stop offset="0.3111" stop-color="#D80042"/>
<stop offset="0.7738" stop-color="#A30141"/>
<stop offset="1" stop-color="#8F0141"/>
</radialGradient>
</defs>
</svg>
