<svg width="136" height="199" viewBox="0 0 136 199" fill="none" xmlns="http://www.w3.org/2000/svg">
<path d="M25.82 173.578V197.03C25.82 197.605 25.4938 197.932 24.9181 197.932H20.9455C20.3698 197.932 20.0436 197.605 20.0436 197.03V182.445L15.4665 193.307C15.2842 193.777 14.9292 193.988 14.4206 193.988H11.9738C11.4652 193.988 11.1102 193.767 10.9279 193.307L6.34123 182.445V197.03C6.34123 197.605 6.01498 197.932 5.43925 197.932H1.46673C0.891002 197.932 0.564761 197.605 0.564761 197.03V173.578C0.564761 173.003 0.891002 172.676 1.46673 172.676H5.43925H6.30285C6.81141 172.676 7.16644 172.897 7.34876 173.358L13.1924 187.242L19.036 173.358C19.2184 172.887 19.5734 172.676 20.0819 172.676H22.999H24.9085C25.5034 172.676 25.82 173.003 25.82 173.578ZM29.9749 176.831V173.588C29.9749 173.012 30.3011 172.686 30.8769 172.686H34.4847C35.0605 172.686 35.3867 173.012 35.3867 173.588V176.831C35.3867 177.407 35.0605 177.733 34.4847 177.733H30.8769C30.3011 177.724 29.9749 177.407 29.9749 176.831ZM29.9749 197.03V180.794C29.9749 180.218 30.3011 179.892 30.8769 179.892H34.4847C35.0605 179.892 35.3867 180.218 35.3867 180.794V197.03C35.3867 197.605 35.0605 197.932 34.4847 197.932H30.8769C30.3011 197.932 29.9749 197.605 29.9749 197.03ZM53.3878 197.932H49.636C49.1658 197.932 48.8108 197.711 48.5517 197.318L46.0281 193.307L43.5045 197.318C43.255 197.711 42.8904 197.932 42.4202 197.932H38.6684C37.9487 197.932 37.6609 197.461 38.0543 196.847L43.1591 188.739L38.275 180.976C37.8815 180.362 38.1694 179.892 38.8891 179.892H42.6409C43.1111 179.892 43.4757 180.113 43.7252 180.506L46.0377 184.181L48.3502 180.506C48.5997 180.113 48.9643 179.892 49.4345 179.892H53.1863C53.906 179.892 54.1938 180.362 53.8004 180.976L48.9163 188.739L54.0211 196.847C54.4049 197.461 54.1171 197.932 53.3878 197.932ZM56.8614 197.03V193.057C56.8614 192.481 57.1876 192.155 57.7634 192.155H61.7359C62.3116 192.155 62.6379 192.481 62.6379 193.057V197.03C62.6379 197.605 62.3116 197.932 61.7359 197.932H57.7634C57.178 197.932 56.8614 197.605 56.8614 197.03ZM78.8638 173.578V177.33C78.8638 177.906 78.5376 178.232 77.9618 178.232H73.0969V197.03C73.0969 197.605 72.7707 197.932 72.1949 197.932H68.2224C67.6467 197.932 67.3204 197.605 67.3204 197.03V178.232H62.4459C61.8702 178.232 61.544 177.906 61.544 177.33V173.578C61.544 173.003 61.8702 172.676 62.4459 172.676H73.0969H77.9714C78.5376 172.676 78.8638 173.003 78.8638 173.578ZM95.5407 180.794V197.03C95.5407 197.605 95.2145 197.932 94.6387 197.932H91.0309C90.4551 197.932 90.1289 197.605 90.1289 197.03V196.281C89.2845 197.538 87.7492 198.431 85.4367 198.431C82.0783 198.431 79.6602 195.83 79.6602 191.32V180.785C79.6602 180.209 79.9865 179.883 80.5622 179.883H84.1701C84.7458 179.883 85.0721 180.209 85.0721 180.785V190.85C85.0721 192.654 86.118 193.451 87.4901 193.451C89.1118 193.451 90.1289 192.549 90.1289 190.418V180.785C90.1289 180.209 90.4551 179.883 91.0309 179.883H94.6387C95.2145 179.892 95.5407 180.218 95.5407 180.794ZM109.608 180.468V184.728C109.608 185.304 109.358 185.592 108.888 185.592C106.863 185.515 104.916 186.532 104.916 189.42V197.03C104.916 197.605 104.589 197.932 104.014 197.932H100.406C99.8299 197.932 99.5037 197.605 99.5037 197.03V180.794C99.5037 180.218 99.8299 179.892 100.406 179.892H104.014C104.589 179.892 104.916 180.218 104.916 180.794V182.742C105.453 180.928 106.873 179.873 108.667 179.604C109.281 179.499 109.608 179.892 109.608 180.468ZM126.563 186.571V197.03C126.563 197.605 126.237 197.932 125.661 197.932H122.197C121.621 197.932 121.295 197.605 121.295 197.03V196.512C120.326 197.644 118.906 198.431 116.641 198.431C113.465 198.431 110.692 196.55 110.692 192.798C110.692 189.046 113.465 187.166 116.641 187.166C118.906 187.166 120.326 187.808 121.295 188.538V186.906C121.295 185.141 120.575 184.344 119.059 184.344C117.937 184.344 117.255 184.776 116.967 185.39C116.747 185.899 116.574 186.187 116.027 186.187H112.496C111.92 186.187 111.556 185.861 111.594 185.246C112.064 181.351 115.384 179.364 119.059 179.364C123.032 179.384 126.563 181.696 126.563 186.571ZM121.295 192.808C121.295 191.685 120.316 191.004 118.551 191.004C116.891 191.004 116.094 191.762 116.094 192.808C116.094 193.854 116.891 194.612 118.551 194.612C120.326 194.612 121.295 193.854 121.295 192.808ZM58.6365 133.479C54.6064 132.375 50.8354 130.725 47.4003 128.422C45.6731 127.29 44.013 126.004 42.449 124.546C41.6238 123.874 40.9137 123.029 40.1173 122.291C39.3976 121.456 38.6012 120.698 37.9007 119.805C34.9741 116.389 32.297 112.494 29.4183 108.368C29.8693 113.635 31.4814 118.721 33.9858 123.317C35.2236 125.63 36.7493 127.76 38.4765 129.689C39.3209 130.677 40.2708 131.541 41.2208 132.404C42.2091 133.21 43.1974 134.026 44.2625 134.698C48.4653 137.509 53.3111 138.996 58.0512 139.111C60.4309 139.169 62.7818 138.91 65.0559 138.315C66.1978 138.018 67.3109 137.643 68.3951 137.164C69.4794 136.684 70.5445 136.146 71.5233 135.427C66.927 135.196 62.6762 134.602 58.6365 133.479ZM50.2597 41.7558C52.4283 42.5618 54.6832 43.6077 56.7846 44.9511C63.5974 49.2978 80.7637 42.8017 80.7637 42.8017C80.7637 42.8017 84.266 41.3432 81.9056 38.666C81.9056 38.666 78.2113 35.9409 72.8762 34.5208C71.696 33.8491 67.7906 31.2871 68.1073 26.8828C68.1265 26.6045 68.1361 26.3838 68.1361 26.2111C74.2868 -0.694585 93.5545 1.81943 93.5545 1.81943C93.5545 1.81943 105.501 0.543234 115.106 10.0811C125.795 20.7129 117.361 54.3162 124.529 61.3977C130.171 66.9727 133.51 62.6163 134.69 60.5053C135.007 59.9296 135.208 59.2867 135.304 58.615C136.283 51.6583 141.042 6.77069 101.663 0.600805C75.6397 -3.47727 67.8386 14.0249 65.7084 28.3221C64.2499 33.6476 60.239 34.4344 60.239 34.4344L60.2486 34.444C53.7812 35.845 50.1638 38.5029 50.1638 38.5029C48.83 39.0499 48.9067 41.2472 50.2597 41.7558ZM112.765 89.5796C112.458 85.5687 111.719 81.5194 110.462 77.6716C109.214 73.8238 107.487 70.1776 105.376 66.9535C103.255 63.7294 100.751 60.9659 98.0451 58.6918C97.3735 58.1161 96.6922 57.5691 95.9917 57.0701C95.3104 56.5328 94.5908 56.0722 93.8903 55.5829C92.4414 54.7001 91.0117 53.8173 89.534 53.0976C86.569 51.6679 83.5368 50.4685 80.3991 49.7872C78.835 49.317 77.0982 49.2594 75.4958 49.3938C73.855 49.4897 72.2717 49.8448 70.6693 50.2574C70.4678 50.3149 70.2759 50.3629 70.0456 50.4397C59.3178 53.7117 54.5873 50.0079 54.5777 50.0079L54.3186 49.816C51.2001 47.609 47.9088 46.0833 44.4928 44.9415C43.61 44.6632 42.8136 44.4137 41.7773 44.2026L39.0522 43.7996C37.277 43.4638 35.4443 43.5405 33.602 43.4734C32.6712 43.5117 31.7404 43.6269 30.8001 43.7229C29.8597 43.79 28.9194 43.9915 27.9694 44.2026C26.0791 44.596 24.1792 45.2773 22.3177 46.0641C18.5851 47.7146 15.1019 50.3821 12.1465 53.5678C9.1623 56.7439 6.82101 60.5533 4.97868 64.4683C4.51809 65.447 4.12467 66.4545 3.72166 67.4621C3.36663 68.4696 2.99241 69.4867 2.67576 70.5038C2.06165 72.5285 1.45713 74.6203 1.08291 76.7505C0.27689 81.0013 -0.0877381 85.3 0.0178121 89.5412C0.0657895 91.6618 0.190533 93.7632 0.440015 95.8359C0.564756 96.8722 0.708693 97.9181 0.871816 98.916L1.40916 101.843C2.11922 105.738 3.17473 109.596 4.39335 113.376C5.68874 117.147 7.19523 120.842 9.04715 124.334C10.9087 127.818 13.106 131.09 15.5721 134.026C20.5617 139.889 26.6644 144.216 32.9879 147.047C39.3401 149.906 45.8458 151.442 52.4187 152.104C52.8313 152.142 53.2535 152.171 53.6757 152.2L54.3186 152.228C54.4913 152.238 54.9135 152.248 55.0766 152.228C55.9402 152.18 56.7462 152.132 57.5715 152.046C59.2027 151.864 60.8051 151.643 62.4076 151.365C65.6125 150.799 68.779 150.079 71.9359 149.139C78.2209 147.268 84.5251 144.734 90.5031 140.752C93.4681 138.747 96.2796 136.329 98.88 133.565C100.214 132.212 101.365 130.667 102.565 129.132C103.63 127.511 104.791 125.918 105.693 124.152C109.598 117.263 111.728 109.26 112.592 101.507C112.736 100.547 112.774 99.5493 112.832 98.561L112.985 95.596C112.918 93.5905 112.976 91.6139 112.765 89.5796ZM100.55 84.8394C100.396 86.4227 100.358 87.9676 100.137 89.5508C99.8107 92.6789 99.3118 95.8263 98.736 98.9832C97.5846 105.326 96.2412 111.304 94.0918 116.965C93.0555 119.815 91.8369 122.588 90.3592 125.246C88.9007 127.923 87.1831 130.476 85.1968 132.826C81.2243 137.519 76.1099 141.299 70.4582 143.554C67.6371 144.706 64.7009 145.502 61.7263 145.953C60.239 146.183 58.7421 146.346 57.2548 146.385C56.516 146.404 55.7675 146.433 55.067 146.385C54.8463 146.375 54.8751 146.366 54.6544 146.337L54.1363 146.26L53.0616 146.059C47.2659 144.869 41.6909 141.99 36.97 138.257C34.5999 136.377 32.4505 134.237 30.493 131.972C28.5547 129.679 26.8372 127.232 25.3019 124.68C23.7954 122.099 22.5 119.402 21.3294 116.639C20.2067 113.837 19.2759 110.93 18.5275 107.926C17.8366 104.894 17.2705 101.823 16.9538 98.6569L16.6947 96.2868C16.6276 95.5288 16.5892 94.7899 16.5508 94.0415C16.5028 92.5542 16.4836 91.0765 16.5316 89.618C16.6564 86.701 16.973 83.8415 17.5679 81.1164C18.1341 78.4201 18.9593 75.6566 19.986 73.2481C22.0298 68.3448 24.8413 64.6026 28.7371 61.9926C29.735 61.3881 30.7233 60.6685 31.8652 60.1983C32.9399 59.5458 34.1777 59.2195 35.3675 58.6918C36.6341 58.3559 37.8911 57.857 39.2441 57.6171C39.887 57.4732 40.6546 57.3292 41.2016 57.1661C41.7197 57.051 42.4778 56.9742 43.1399 56.9262C45.9034 56.7151 48.7628 56.7727 51.3728 57.4252L51.8526 57.5595L52.0924 57.6267L52.2172 57.6555L52.4379 57.7322C53.0328 57.9146 53.6757 58.164 54.2034 58.1928C55.3165 58.3463 56.3048 58.2888 57.2452 58.1736C58.4926 58.0297 59.6345 57.7226 60.7379 57.3772L60.7284 57.3868C60.7284 57.3868 60.7571 57.3772 60.7763 57.3676C61.3041 57.2045 61.8222 57.0318 62.3308 56.8495C62.4747 56.8015 62.6091 56.7343 62.753 56.6863C69.2204 54.6617 89.4572 49.9215 97.834 66.7808C98.3906 68.0858 98.8608 69.4099 99.235 70.7629C100.099 73.8334 100.473 76.9999 100.55 80.1473C100.665 81.7017 100.588 83.285 100.55 84.8394Z" fill="url(#paint0_radial)"/>
<defs>
<radialGradient id="paint0_radial" cx="0" cy="0" r="1" gradientUnits="userSpaceOnUse" gradientTransform="translate(67.996 99.2162) scale(85.0565)">
<stop stop-color="#FF0043"/>
<stop offset="0.3111" stop-color="#D80042"/>
<stop offset="0.7738" stop-color="#A30141"/>
<stop offset="1" stop-color="#8F0141"/>
</radialGradient>
</defs>
</svg>
